<svg width="218" height="218" viewBox="0 0 218 218" fill="none" xmlns="http://www.w3.org/2000/svg">
<path d="M208.607 109C213.794 109 218.042 113.214 217.595 118.382C215.496 142.691 205.284 165.697 188.457 183.616C169.479 203.825 143.514 216.044 115.844 217.785C88.1752 219.526 60.8825 210.658 39.5211 192.986C18.1595 175.314 4.33454 150.166 0.859828 122.662C-2.61488 95.1562 4.52182 67.3607 20.8174 44.9317C37.1131 22.5026 61.3429 7.12595 88.5756 1.93103C115.808 -3.26388 143.997 2.11344 167.405 16.9686C188.159 30.1394 203.772 49.883 211.85 72.9063C213.568 77.8012 210.502 82.9388 205.477 84.2289C200.453 85.519 195.38 82.4676 193.575 77.6043C186.744 59.2017 174.057 43.4394 157.339 32.83C137.965 20.5351 114.635 16.0845 92.0953 20.3841C69.5565 24.6837 49.5026 37.4103 36.0155 55.9737C22.5284 74.5371 16.6216 97.5426 19.4975 120.307C22.3733 143.071 33.8156 163.885 51.4956 178.512C69.1755 193.137 91.7647 200.477 114.665 199.036C137.565 197.595 159.056 187.483 174.764 170.756C188.317 156.322 196.686 137.9 198.726 118.377C199.264 113.217 203.42 109 208.607 109Z" fill="#0ACF83"/>
</svg>
